<svg xmlns="http://www.w3.org/2000/svg" width="900" height="900" viewBox="0 0 900 900" fill="none"><path d="M900 450C900 798.528 798.528 900 450 900C101.472 900 0 798.528 0 450C0 101.472 101.472 0 450 0C798.528 0 900 101.472 900 450Z" fill="white"></path><path d="M446.012 352.1L550.728 405.263L723.108 617.381L625.909 815L440.642 794.594L268.799 815L166.768 617.381L341.295 405.263L446.012 352.1Z" fill="#B5F6FC"></path><path d="M308.001 577.104L550.728 405.262L723.108 617.38L625.909 814.999L440.642 794.592L268.799 814.999L166.768 617.38L308.001 577.104Z" fill="#4FB7D9"></path><path d="M268.799 814.999L308 577.104L446.011 697.931L580.8 577.104L550.728 405.262L723.107 617.38L625.909 814.999L440.641 794.592L268.799 814.999Z" fill="#316DC9"></path><path d="M580.8 577.104L723.107 617.379L625.909 814.998L440.641 794.592L268.799 814.998L446.011 697.93L625.909 814.998L580.8 577.104Z" fill="#1A418D"></path><path d="M341.295 405.262L308.001 577.104L166.768 617.38L341.295 405.262Z" fill="#94E4EB"></path><path d="M550.728 405.263L446.012 352.1L341.295 405.263L166.768 617.381L268.799 815L440.642 794.594L625.909 815L723.108 617.381L550.728 405.263Z" stroke="#1A418D" stroke-width="10"></path><path d="M656.518 166.294L581.337 69.0957L490.046 139.981L473.936 281.214L556.098 353.71L642.556 296.787L656.518 166.294Z" fill="#B5F6FC"></path><path d="M581.337 69.0957L656.518 166.294L642.556 296.787L556.098 353.71L473.936 281.214L572.745 199.589L581.337 69.0957Z" fill="#4FB7D9"></path><path d="M656.518 166.293L642.556 296.786L556.098 353.709L572.745 199.587L656.518 166.293Z" fill="#316DC9"></path><path d="M642.556 296.786L656.518 166.293L613.02 264.028L556.098 353.709L642.556 296.786Z" fill="#1A418D"></path><path d="M656.518 166.294L581.337 69.0957L490.046 139.981L473.936 281.214L556.098 353.71L642.556 296.787L656.518 166.294Z" stroke="#1A418D" stroke-width="10"></path><path d="M401.959 147.378L305.709 70.986L234.025 161.651L252.167 302.637L349.286 353.375L419.617 277.423L401.959 147.378Z" fill="#B5F6FC"></path><path d="M305.709 70.986L401.959 147.378L419.617 277.423L349.286 353.375L252.167 302.637L328.582 199.746L305.709 70.986Z" fill="#4FB7D9"></path><path d="M401.958 147.379L419.617 277.423L349.285 353.375L328.581 199.746L401.958 147.379Z" fill="#316DC9"></path><path d="M419.617 277.423L401.958 147.379L383.103 252.682L349.285 353.375L419.617 277.423Z" fill="#1A418D"></path><path d="M401.959 147.378L305.709 70.986L234.025 161.651L252.167 302.637L349.286 353.375L419.617 277.423L401.959 147.378Z" stroke="#1A418D" stroke-width="10"></path><path d="M774.659 267.254L828.359 354.786L805.268 467.021L705.922 511.592L642.555 418.153L687.663 305.918L774.659 267.254Z" fill="#B5F6FC"></path><path d="M774.659 267.254L828.359 354.786L805.268 467.021L705.922 511.592L642.555 418.153L753.715 363.915L774.659 267.254Z" fill="#4FB7D9"></path><path d="M828.36 354.787L805.268 467.022L705.922 511.593L753.716 363.916L828.36 354.787Z" fill="#316DC9"></path><path d="M805.268 467.022L828.36 354.787L782.177 432.653L705.922 511.593L805.268 467.022Z" fill="#1A418D"></path><path d="M828.359 354.786L774.659 267.254L687.663 305.918L642.555 418.153L705.922 511.592L805.268 467.021L828.359 354.786Z" stroke="#1A418D" stroke-width="10"></path><path d="M117.906 266.85L210.392 311.482L251.614 418.396L192.108 509.585L88.2968 465.207L65.601 346.395L117.906 266.85Z" fill="#B5F6FC"></path><path d="M117.906 266.85L210.392 311.482L251.614 418.396L192.108 509.585L88.2968 465.207L152.519 359.5L117.906 266.85Z" fill="#4FB7D9"></path><path d="M210.394 311.48L251.615 418.394L192.11 509.583L152.521 359.499L210.394 311.48Z" fill="#316DC9"></path><path d="M251.615 418.394L210.394 311.48L213.613 401.954L192.11 509.583L251.615 418.394Z" fill="#1A418D"></path><path d="M210.392 311.482L117.906 266.85L65.601 346.395L88.2968 465.207L192.108 509.585L251.614 418.396L210.392 311.482Z" stroke="#1A418D" stroke-width="10"></path></svg>