<svg class="w-5 h-5 mr-1.5" viewBox="0 0 960 960" fill="none" xmlns="http://www.w3.org/2000/svg">
<path d="M840 480C840 281.177 678.823 120 480 120C281.177 120 120 281.177 120 480C120 678.823 281.177 840 480 840C678.823 840 840 678.823 840 480ZM920 480C920 723.005 723.005 920 480 920C236.995 920 40 723.005 40 480C40 236.995 236.995 40 480 40C723.005 40 920 236.995 920 480Z" fill="black"/>
<path d="M395.748 261.893C428.318 242.754 466.6 235.744 503.834 242.127C541.07 248.514 574.853 267.876 599.186 296.776C623.51 325.671 636.849 362.248 636.803 400.018L636.295 411.229C631.194 466.213 589.383 503.038 558.99 523.299C541.572 534.911 524.427 543.43 511.803 549.041C505.433 551.872 500.043 554.014 496.178 555.487C494.246 556.222 492.67 556.8 491.53 557.205C490.964 557.406 490.512 557.593 490.162 557.713C489.992 557.772 489.849 557.83 489.733 557.869C489.68 557.887 489.617 557.895 489.576 557.908L489.498 557.948H489.459C468.501 564.933 445.82 553.593 438.834 532.635C431.87 511.707 443.164 489.061 464.069 482.049V482.088L464.147 482.049C464.252 482.013 464.452 481.954 464.733 481.854C465.345 481.636 466.365 481.269 467.701 480.76C470.398 479.733 474.425 478.123 479.303 475.955C489.175 471.568 502.042 465.118 514.615 456.737C542.191 438.353 556.795 418.778 556.803 400.018V399.94C556.831 381.049 550.178 362.751 538.014 348.299C525.847 333.846 508.939 324.149 490.319 320.955C471.701 317.764 452.542 321.267 436.256 330.838C419.973 340.408 407.605 355.444 401.334 373.26C394.003 394.1 371.158 405.083 350.319 397.752C329.483 390.422 318.54 367.574 325.865 346.737C338.404 311.092 363.172 281.038 395.748 261.893Z" fill="black"/>
<path d="M480.391 640C502.482 640 520.391 657.909 520.391 680C520.391 702.091 502.482 720 480.391 720H480C457.909 720 440 702.091 440 680C440 657.909 457.909 640 480 640H480.391Z" fill="black"/>
</svg>
